<svg width="31" height="31" viewBox="0 0 31 31" fill="none" xmlns="http://www.w3.org/2000/svg">
<g clip-path="url(#clip0_117_261)">
<path d="M15.4998 4.3055C16.692 4.3055 17.8574 4.65902 18.8486 5.32137C19.8399 5.98371 20.6125 6.92512 21.0687 8.02655C21.525 9.12798 21.6443 10.34 21.4117 11.5092C21.1792 12.6785 20.6051 13.7526 19.7621 14.5956C18.9191 15.4386 17.845 16.0127 16.6757 16.2452C15.5065 16.4778 14.2945 16.3584 13.1931 15.9022C12.0916 15.446 11.1502 14.6734 10.4879 13.6821C9.82553 12.6909 9.47201 11.5255 9.47201 10.3333C9.47201 8.73461 10.1071 7.20142 11.2375 6.071C12.3679 4.94057 13.9011 4.3055 15.4998 4.3055ZM15.4998 1.72217C13.7967 1.72217 12.1318 2.2272 10.7157 3.1734C9.29962 4.1196 8.19591 5.46447 7.54416 7.03795C6.8924 8.61142 6.72187 10.3428 7.05414 12.0132C7.3864 13.6836 8.20653 15.218 9.41081 16.4223C10.6151 17.6265 12.1495 18.4467 13.8198 18.7789C15.4902 19.1112 17.2216 18.9407 18.7951 18.2889C20.3686 17.6372 21.7135 16.5334 22.6597 15.1174C23.6059 13.7013 24.1109 12.0364 24.1109 10.3333C24.1109 9.20245 23.8882 8.0827 23.4554 7.03795C23.0227 5.9932 22.3884 5.04392 21.5888 4.2443C20.7891 3.44469 19.8399 2.8104 18.7951 2.37765C17.7504 1.9449 16.6306 1.72217 15.4998 1.72217Z" fill="#517EA4"/>
<path d="M27.9865 30.5694C27.6454 30.565 27.3194 30.4274 27.0781 30.1862C26.8369 29.9449 26.6993 29.6189 26.6949 29.2778C26.574 26.4254 25.3284 23.7369 23.2305 21.8005C21.1327 19.864 18.3534 18.8371 15.5004 18.9444C12.6475 18.8371 9.86817 19.864 7.77034 21.8005C5.67251 23.7369 4.42691 26.4254 4.30599 29.2778C4.30599 29.6203 4.1699 29.9489 3.92767 30.1911C3.68543 30.4333 3.35689 30.5694 3.01432 30.5694C2.67175 30.5694 2.34321 30.4333 2.10098 30.1911C1.85874 29.9489 1.72266 29.6203 1.72266 29.2778C1.84404 25.7403 3.36197 22.3951 5.94418 19.9742C8.52639 17.5534 11.9625 16.2542 15.5004 16.3611C19.0383 16.2542 22.4745 17.5534 25.0567 19.9742C27.6389 22.3951 29.1568 25.7403 29.2782 29.2778C29.2738 29.6189 29.1362 29.9449 28.895 30.1862C28.6537 30.4274 28.3277 30.565 27.9865 30.5694Z" fill="#517EA4"/>
</g>
<defs>
<clipPath id="clip0_117_261">
<rect width="31" height="31" fill="white"/>
</clipPath>
</defs>
</svg>
