<svg width="31" height="31" viewBox="0 0 31 31" fill="none" xmlns="http://www.w3.org/2000/svg">
<path d="M13.7782 4.3055C15.6516 4.3055 17.483 4.86104 19.0407 5.90186C20.5984 6.94268 21.8125 8.42204 22.5294 10.1529C23.2463 11.8837 23.4339 13.7882 23.0684 15.6257C22.7029 17.4631 21.8008 19.1509 20.4761 20.4756C19.1514 21.8003 17.4636 22.7024 15.6262 23.0679C13.7887 23.4334 11.8842 23.2458 10.1534 22.5289C8.42253 21.812 6.94317 20.5979 5.90235 19.0402C4.86153 17.4825 4.30599 15.6512 4.30599 13.7777C4.31055 11.2669 5.30997 8.86028 7.08537 7.08488C8.86077 5.30948 11.2674 4.31005 13.7782 4.3055ZM13.7782 1.72217C11.3939 1.72217 9.06303 2.42921 7.08051 3.7539C5.09798 5.07858 3.55279 6.9614 2.64034 9.16426C1.72788 11.3671 1.48914 13.7911 1.95431 16.1296C2.41947 18.4682 3.56765 20.6163 5.25365 22.3023C6.93965 23.9883 9.08775 25.1365 11.4263 25.6016C13.7648 26.0668 16.1888 25.8281 18.3917 24.9156C20.5945 24.0031 22.4774 22.458 23.802 20.4754C25.1267 18.4929 25.8338 16.1621 25.8338 13.7777C25.8338 10.5804 24.5636 7.51401 22.3028 5.25316C20.0419 2.9923 16.9755 1.72217 13.7782 1.72217Z" fill="#3D709C"/>
<path d="M29.2784 30.4147C29.111 30.4172 28.9449 30.3848 28.7907 30.3195C28.6365 30.2543 28.4976 30.1577 28.3828 30.0358L21.494 23.3191C21.3176 23.0772 21.2308 22.7815 21.2483 22.4827C21.2658 22.1838 21.3866 21.9004 21.59 21.6807C21.7934 21.461 22.0667 21.3188 22.3634 21.2784C22.66 21.238 22.9614 21.3019 23.2162 21.4591L30.1051 28.193C30.347 28.4352 30.4828 28.7635 30.4828 29.1058C30.4828 29.4481 30.347 29.7764 30.1051 30.0186C29.8845 30.2434 29.5919 30.3836 29.2784 30.4147Z" fill="#3D709C"/>
</svg>
