<svg width="35" height="32" viewBox="0 0 35 32" fill="none" xmlns="http://www.w3.org/2000/svg">
<path d="M26.8509 9.13613C27.6843 9.14211 28.4817 9.44723 29.071 9.98566C29.6604 10.5241 29.9943 11.2526 30.0009 12.0141V25.1247C29.9943 25.8861 29.6604 26.6147 29.071 27.1531C28.4817 27.6916 27.6843 27.9967 26.8509 28.0027H8.15089C7.31747 27.9967 6.52005 27.6916 5.93072 27.1531C5.3414 26.6147 5.00742 25.8861 5.00089 25.1247V12.0141C5.00742 11.2526 5.3414 10.5241 5.93072 9.98566C6.52005 9.44723 7.31747 9.14211 8.15089 9.13613H26.8509ZM26.8509 6.85205H8.15089C6.65241 6.85205 5.21531 7.39591 4.15573 8.36397C3.09615 9.33204 2.50089 10.645 2.50089 12.0141V25.1247C2.4876 25.8102 2.62393 26.4913 2.90192 27.1282C3.17991 27.7651 3.59398 28.345 4.11996 28.834C4.64594 29.3231 5.27328 29.7115 5.96537 29.9766C6.65746 30.2417 7.40043 30.3782 8.15089 30.3781H26.8509C27.6013 30.3782 28.3443 30.2417 29.0364 29.9766C29.7285 29.7115 30.3558 29.3231 30.8818 28.834C31.4078 28.345 31.8219 27.7651 32.0998 27.1282C32.3778 26.4913 32.5142 25.8102 32.5009 25.1247V12.0141C32.5009 10.645 31.9056 9.33204 30.846 8.36397C29.7865 7.39591 28.3494 6.85205 26.8509 6.85205Z" fill="#3D709C"/>
<path d="M23.75 6.8523H21.25C21.25 5.94363 20.8549 5.07218 20.1517 4.42966C19.4484 3.78714 18.4946 3.42617 17.5 3.42617C16.5054 3.42617 15.5516 3.78714 14.8483 4.42966C14.1451 5.07218 13.75 5.94363 13.75 6.8523H11.25C11.25 5.33786 11.9085 3.88544 13.0806 2.81457C14.2527 1.7437 15.8424 1.14209 17.5 1.14209C19.1576 1.14209 20.7473 1.7437 21.9194 2.81457C23.0915 3.88544 23.75 5.33786 23.75 6.8523Z" fill="#3D709C"/>
</svg>
