<svg width="22" height="13" viewBox="0 0 22 13" fill="none" xmlns="http://www.w3.org/2000/svg">
<path d="M0.845202 7.66723e-05C0.734776 -0.0013601 0.62514 0.0174089 0.522666 0.0552928C0.420193 0.0931767 0.326925 0.14942 0.248284 0.220754C0.169642 0.292088 0.107195 0.37709 0.0645724 0.470821C0.0219493 0.564551 0 0.665141 0 0.766743C0 0.868346 0.0219493 0.968936 0.0645724 1.06267C0.107195 1.1564 0.169642 1.2414 0.248284 1.31273C0.326925 1.38407 0.420193 1.44031 0.522666 1.47819C0.62514 1.51608 0.734776 1.53485 0.845202 1.53341H20.8452C20.9556 1.53485 21.0653 1.51608 21.1677 1.47819C21.2702 1.44031 21.3635 1.38407 21.4421 1.31273C21.5208 1.2414 21.5832 1.1564 21.6258 1.06267C21.6685 0.968936 21.6904 0.868346 21.6904 0.766743C21.6904 0.665141 21.6685 0.564551 21.6258 0.470821C21.5832 0.37709 21.5208 0.292088 21.4421 0.220754C21.3635 0.14942 21.2702 0.0931767 21.1677 0.0552928C21.0653 0.0174089 20.9556 -0.0013601 20.8452 7.66723e-05H0.845202ZM0.845202 5.36674C0.734776 5.36531 0.62514 5.38408 0.522666 5.42196C0.420193 5.45984 0.326925 5.51609 0.248284 5.58742C0.169642 5.65875 0.107195 5.74376 0.0645724 5.83749C0.0219493 5.93122 0 6.03181 0 6.13341C0 6.23501 0.0219493 6.3356 0.0645724 6.42933C0.107195 6.52306 0.169642 6.60807 0.248284 6.6794C0.326925 6.75073 0.420193 6.80698 0.522666 6.84486C0.62514 6.88274 0.734776 6.90151 0.845202 6.90008H20.8452C20.9556 6.90151 21.0653 6.88274 21.1677 6.84486C21.2702 6.80698 21.3635 6.75073 21.4421 6.6794C21.5208 6.60807 21.5832 6.52306 21.6258 6.42933C21.6685 6.3356 21.6904 6.23501 21.6904 6.13341C21.6904 6.03181 21.6685 5.93122 21.6258 5.83749C21.5832 5.74376 21.5208 5.65875 21.4421 5.58742C21.3635 5.51609 21.2702 5.45984 21.1677 5.42196C21.0653 5.38408 20.9556 5.36531 20.8452 5.36674H0.845202ZM0.845202 10.7334C0.734776 10.732 0.62514 10.7507 0.522666 10.7886C0.420193 10.8265 0.326925 10.8828 0.248284 10.9541C0.169642 11.0254 0.107195 11.1104 0.0645724 11.2042C0.0219493 11.2979 0 11.3985 0 11.5001C0 11.6017 0.0219493 11.7023 0.0645724 11.796C0.107195 11.8897 0.169642 11.9747 0.248284 12.0461C0.326925 12.1174 0.420193 12.1736 0.522666 12.2115C0.62514 12.2494 0.734776 12.2682 0.845202 12.2667H20.8452C20.9556 12.2682 21.0653 12.2494 21.1677 12.2115C21.2702 12.1736 21.3635 12.1174 21.4421 12.0461C21.5208 11.9747 21.5832 11.8897 21.6258 11.796C21.6685 11.7023 21.6904 11.6017 21.6904 11.5001C21.6904 11.3985 21.6685 11.2979 21.6258 11.2042C21.5832 11.1104 21.5208 11.0254 21.4421 10.9541C21.3635 10.8828 21.2702 10.8265 21.1677 10.7886C21.0653 10.7507 20.9556 10.732 20.8452 10.7334H0.845202Z" fill="black"/>
</svg>
