<svg width="140" height="60" viewBox="0 0 140 60" fill="none" xmlns="http://www.w3.org/2000/svg">
<path d="M40.0673 3.18018H35.5312V44.1302H40.0673V3.18018Z" fill="#191919"/>
<path d="M70.7003 22.7998C69.571 20.4653 67.8287 18.536 65.6883 17.2498C63.5054 15.8865 61.0188 15.1816 58.4923 15.2098C56.6824 15.1487 54.8796 15.4784 53.1912 16.1794C51.5027 16.8803 49.9632 17.9381 48.6643 19.2898C47.3935 20.6399 46.3948 22.255 45.7302 24.0353C45.0655 25.8156 44.749 27.7232 44.8003 29.6398C44.7765 32.0286 45.3221 34.3845 46.3853 36.4843C47.4486 38.5842 48.9943 40.3587 50.8763 41.6398C51.9626 42.3824 53.1407 42.958 54.3763 43.3498C55.6318 43.7422 56.9325 43.9442 58.2403 43.9498C59.5493 43.9583 60.8551 43.8073 62.1323 43.4998C63.2903 43.1976 64.4094 42.7442 65.4643 42.1498V37.4098L65.1843 37.5898C64.3092 38.214 63.3696 38.7274 62.3843 39.1198C61.2223 39.5508 60.0019 39.7738 58.7723 39.7798C57.5151 39.8064 56.2664 39.5536 55.105 39.0372C53.9435 38.5209 52.8946 37.7522 52.0243 36.7798C51.1496 35.799 50.4663 34.6411 50.0143 33.3739C49.5624 32.1067 49.3509 30.7557 49.3923 29.3998C49.3503 28.0761 49.5567 26.7568 49.9991 25.5201C50.4416 24.2833 51.1112 23.1543 51.9683 22.1998C52.8269 21.2747 53.8544 20.5494 54.9866 20.0693C56.1188 19.5892 57.3314 19.3647 58.5483 19.4098C59.7808 19.3824 61.0046 19.6356 62.139 20.1528C63.2733 20.6699 64.2922 21.4392 65.1283 22.4098C66.8369 24.41 67.7421 27.0503 67.6483 29.7598V43.6798H72.2123V31.9798C72.2576 30.0718 72.1358 28.1634 71.8483 26.2798C71.6422 25.0614 71.2546 23.8864 70.7003 22.7998Z" fill="#191919"/>
<path d="M103.152 22.7702C102.006 20.4488 100.268 18.524 98.1403 17.2202C95.9501 15.8758 93.4685 15.1723 90.9443 15.1802C89.1459 15.13 87.3565 15.4681 85.6825 16.1741C84.0085 16.8802 82.4842 17.9399 81.2003 19.2902C79.9204 20.6344 78.9138 22.2478 78.244 24.029C77.5742 25.8102 77.2557 27.7207 77.3083 29.6402C77.2853 32.0539 77.8242 34.4357 78.8763 36.5702C79.9487 38.6877 81.5106 40.4748 83.4123 41.7602C84.4801 42.5193 85.6514 43.0962 86.8843 43.4702C88.1351 43.8886 89.438 44.101 90.7483 44.1002C92.0604 44.1044 93.3679 43.933 94.6403 43.5902C95.8094 43.3239 96.9395 42.89 98.0003 42.3002V37.3802L97.7204 37.5602C96.8453 38.1843 95.9057 38.6977 94.9204 39.0902C93.7583 39.5211 92.538 39.7441 91.3083 39.7502C90.0511 39.7768 88.8024 39.5239 87.641 39.0076C86.4796 38.4912 85.4306 37.7226 84.5603 36.7502C83.6856 35.7694 83.0023 34.6115 82.5504 33.3443C82.0984 32.0771 81.887 30.726 81.9283 29.3702C81.8854 28.0508 82.0913 26.7357 82.534 25.5037C82.9766 24.2717 83.6468 23.1481 84.5043 22.2002C85.3612 21.3039 86.3784 20.6027 87.4947 20.1387C88.6111 19.6746 89.8036 19.4575 91.0003 19.5002C92.2323 19.4765 93.4551 19.7315 94.5889 20.2484C95.7227 20.7653 96.742 21.5326 97.5803 22.5002C98.435 23.4906 99.0978 24.6529 99.5303 25.9197C99.9629 27.1865 100.157 28.5326 100.1 29.8802V42.8102C100.164 44.1243 99.9761 45.4385 99.5475 46.6717C99.1189 47.9049 98.4589 49.0309 97.6083 49.9802C96.691 50.8836 95.6134 51.5802 94.4397 52.0285C93.2661 52.4769 92.0203 52.6679 90.7763 52.5902C89.61 52.5804 88.4472 52.4498 87.3043 52.2002C85.9608 51.8728 84.6338 51.4723 83.3283 51.0002L82.3483 55.4102C83.7366 55.8591 85.1484 56.2197 86.5763 56.4902C87.9349 56.7499 89.3123 56.8804 90.6923 56.8802C92.5377 56.9672 94.3809 56.6621 96.1157 55.9824C97.8505 55.3028 99.4426 54.262 100.8 52.9202C102.078 51.5064 103.071 49.8259 103.716 47.9834C104.362 46.1408 104.646 44.1756 104.552 42.2102V31.9502C104.599 30.0421 104.477 28.1336 104.188 26.2502C104.007 25.0414 103.657 23.8684 103.152 22.7702Z" fill="#191919"/>
<path d="M136.164 23.9999C135.453 22.2422 134.425 20.6519 133.14 19.3199C131.867 18.0138 130.362 16.9938 128.716 16.3199C127.052 15.6037 125.273 15.2469 123.48 15.2699C121.696 15.2437 119.925 15.6007 118.272 16.3199C116.63 17.0043 115.128 18.0231 113.848 19.3199C112.557 20.665 111.521 22.2642 110.796 24.0299C110.115 25.7684 109.763 27.6345 109.76 29.5199C109.766 31.4244 110.117 33.3095 110.796 35.0699C111.511 36.8329 112.549 38.4243 113.848 39.7499C116.427 42.4334 119.884 43.9299 123.48 43.9199C125.295 43.9884 127.105 43.6619 128.8 42.9599C130.439 42.2876 131.934 41.2671 133.196 39.9599C134.488 38.6262 135.511 37.0217 136.2 35.2462C136.889 33.4708 137.229 31.5624 137.2 29.6399C137.226 27.703 136.873 25.7817 136.164 23.9999ZM130.004 36.6899C129.158 37.628 128.144 38.3741 127.023 38.8836C125.902 39.3932 124.697 39.6558 123.48 39.6558C122.262 39.6558 121.057 39.3932 119.936 38.8836C118.815 38.3741 117.802 37.628 116.956 36.6899C116.059 35.7422 115.349 34.6113 114.869 33.3642C114.388 32.1171 114.145 30.7792 114.156 29.4299C114.15 28.0947 114.395 26.7719 114.876 25.5402C115.357 24.3085 116.064 23.1929 116.956 22.2599C117.8 21.3133 118.815 20.5599 119.939 20.0452C121.062 19.5305 122.272 19.2651 123.494 19.2651C124.716 19.2651 125.925 19.5305 127.049 20.0452C128.173 20.5599 129.187 21.3133 130.032 22.2599C130.924 23.1919 131.633 24.3072 132.114 25.5392C132.595 26.7712 132.839 28.0945 132.832 29.4299C132.859 30.8022 132.622 32.1657 132.135 33.4355C131.649 34.7052 130.923 35.8539 130.004 36.8099V36.6899Z" fill="#191919"/>
<path d="M25.7875 30.8102C25.4763 33.2042 24.4324 35.42 22.8195 37.1102C21.1861 38.7382 19.0303 39.6299 16.7995 39.6002C15.5856 39.6125 14.3827 39.3519 13.2686 38.8352C12.1544 38.3184 11.1539 37.557 10.3315 36.6002C9.88229 36.0815 9.4792 35.5191 9.12754 34.9202C8.38402 33.6495 7.9241 32.2123 7.78354 30.7202C7.755 30.2807 7.755 29.8396 7.78354 29.4002C7.74903 28.0793 7.96165 26.7644 8.40887 25.533C8.85609 24.3016 9.52887 23.1786 10.3875 22.2302C11.2158 21.308 12.2127 20.5789 13.316 20.0885C14.4194 19.5981 15.6053 19.3569 16.7995 19.3802H17.1635C18.4176 19.4454 19.6463 19.7822 20.7755 20.3702C21.6071 20.8402 22.3709 21.4363 23.0435 22.1402L23.3795 22.5602L14.6715 27.5102L9.71554 30.3302L11.9275 34.3502L29.7355 24.3002V23.9702C28.6346 21.2832 26.8223 19.0012 24.5229 17.4068C22.2236 15.8124 19.5383 14.9757 16.7995 15.0002C14.9884 14.9604 13.1879 15.3053 11.5019 16.015C9.81581 16.7247 8.27762 17.7851 6.97605 19.135C5.67448 20.4849 4.63529 22.0976 3.91846 23.8801C3.20163 25.6625 2.82134 27.5794 2.79954 29.5202C2.75693 30.0993 2.75693 30.6811 2.79954 31.2602C2.77084 30.8908 2.77084 30.5195 2.79954 30.1502C2.82445 31.1609 2.94643 32.1662 3.16354 33.1502C3.47698 34.4121 3.94789 35.6231 4.56354 36.7502L4.87154 37.2602C6.11601 39.3054 7.80764 40.9943 9.79954 42.1802C10.8351 42.8179 11.9465 43.3023 13.1035 43.6202C14.3111 43.9503 15.5534 44.1116 16.7995 44.1002C20.1021 44.2008 23.3196 42.9696 25.8155 40.6502L26.0115 40.4402C28.5505 38.1629 30.2074 34.9546 30.6595 31.4402L25.9275 30.7202L25.7875 30.8102Z" fill="#191919"/>
</svg>
